<?xml version="1.0" encoding="utf-8"?>
<!-- Generator: Adobe Illustrator 25.4.1, SVG Export Plug-In . SVG Version: 6.00 Build 0)  -->
<svg version="1.1" id="Layer_1" xmlns="http://www.w3.org/2000/svg" xmlns:xlink="http://www.w3.org/1999/xlink" x="0px" y="0px"
	 viewBox="0 0 1395.29 510.28" style="enable-background:new 0 0 1395.29 510.28;" xml:space="preserve">
<style type="text/css">
	.st0{fill:#F2E3C8;}
</style>
<g>
	<g transform="matrix(1, 0, 0, 1, 0, 0)">
		<path id="Path_37-3" class="st0" d="M-1.38,463.61c0,0,357.73-79.11,792.23,0s602.65,29.54,602.65,29.54V-1.8
			c0,0-234.06,90.56-566.05,58.04S461.18-54.35-1.38,97.16C-2.32,565.87-1.38,463.61-1.38,463.61z"/>
	</g>
	<g transform="matrix(1, 0, 0, 1, 0, 0)">
		<path id="Path_37-4" class="st0" d="M-1.38,463.61c0,0,357.73-79.11,792.23,0s602.65,29.54,602.65,29.54V-1.8
			c0,0-234.06,90.56-566.05,58.04S461.18-54.35-1.38,97.16C-2.32,565.87-1.38,463.61-1.38,463.61z"/>
	</g>
</g>
</svg>
