<?xml version="1.0" encoding="utf-8"?>
<!-- Generator: Adobe Illustrator 25.4.1, SVG Export Plug-In . SVG Version: 6.00 Build 0)  -->
<svg version="1.1" id="Layer_1" xmlns="http://www.w3.org/2000/svg" xmlns:xlink="http://www.w3.org/1999/xlink" x="0px" y="0px"
	 viewBox="0 0 156.56 42.87" style="enable-background:new 0 0 156.56 42.87;" xml:space="preserve">
<style type="text/css">
	.st0{fill:#FFFFFF;}
</style>
<path class="st0" d="M155.88,11.4l0.68-11.35L125.48,0l0.55,0.96l-11.46-0.65l-6.3,25.13l-6.5-25.13L85.71,1.65l-0.59-1.35
	L66.61,0.66l-7.95,23.13l3.8-22.19L46.07,0.31l-2.71,25.74L38.08,0.31h-13.2l-4.54,25.36L16.96,0.31L0,1.16l5.45,28.08
	c11.36-1.54,24.43,1.03,24.43,1.03l1.64-7.77l1.63,8.42c12.97,1.1,25.7,4.13,37.77,9l0.85-3.34l7.73,0.02l1.5,4.86
	c7.81,2.19,16.76,1.16,16.76,1.16L86.69,4.17l13.77,38.44c6.06,0.63,12.18,0.1,18.04-1.54l6.53-22.24l-0.43,20.83
	c10.37-2.19,29.26-2.31,29.26-2.31l0.53-7.12h-14.35l0.34-4.47l10.16-0.31l0.74-9.5h-10.09l0.34-3.86L155.88,11.4z M72.75,29.86
	l2.5-14l2.5,14H72.75z"/>
</svg>
